<svg xmlns="http://www.w3.org/2000/svg" height="512pt" viewBox="-133 0 512 512" width="512pt"><path d="m209.921875 437.273438h-173.660156c-6.375 0-12.074219-3.988282-14.257813-9.976563l-21.085937-57.820313c-1.695313-4.65625-1.0156252-9.84375 1.824219-13.898437 2.839843-4.058594 7.480468-6.472656 12.429687-6.472656h215.839844c4.953125 0 9.589843 2.414062 12.429687 6.472656s3.519532 9.246094 1.824219 13.898437l-21.085937 57.820313c-2.1875 5.988281-7.882813 9.976563-14.257813 9.976563zm0 0" fill="#fff780"/><path d="m231.011719 349.101562h-108.035157v88.171876h86.945313c6.375 0 12.070313-3.988282 14.253906-9.976563l21.089844-57.820313c1.695313-4.65625 1.015625-9.84375-1.824219-13.898437-2.839844-4.058594-7.480468-6.476563-12.429687-6.476563zm0 0" fill="#ffc02e"/><path d="m246.171875 364.273438c0-1.921876-.351563-3.859376-1.097656-5.695313l-68.5-169.207031c-2.320313-5.730469-7.882813-9.476563-14.0625-9.476563h-78.839844c-6.179687 0-11.742187 3.746094-14.0625 9.476563l-68.5 169.207031c-.746094 1.835937-1.0976562 3.773437-1.0976562 5.695313zm0 0" fill="#80dbff"/><path d="m162.511719 179.894531h-39.535157v184.378907h123.195313c0-1.921876-.351563-3.859376-1.097656-5.695313l-68.5-169.207031c-2.320313-5.730469-7.882813-9.476563-14.0625-9.476563zm0 0" fill="#4ab8f7"/><path d="m209.921875 512h-173.660156c-8.382813 0-15.175781-6.792969-15.175781-15.171875v-74.730469h204.011718v74.730469c-.003906 8.378906-6.796875 15.171875-15.175781 15.171875zm0 0" fill="#f5fafc"/><path d="m122.976562 512h86.945313c8.378906 0 15.171875-6.792969 15.171875-15.171875v-74.730469h-102.117188zm0 0" fill="#e1f1fa"/><path d="m162.867188 512v-46.316406c0-8.378906 6.792968-15.171875 15.171874-15.171875 8.378907 0 15.171876 6.792969 15.171876 15.171875v46.316406zm0 0" fill="#16204c"/><path d="m107.917969 512v-46.316406c0-8.378906 6.792969-15.171875 15.171875-15.171875 8.382812 0 15.175781 6.792969 15.175781 15.171875v46.316406zm0 0" fill="#3d4883"/><path d="m52.96875 512v-46.316406c0-8.378906 6.792969-15.171875 15.175781-15.171875 8.378907 0 15.171875 6.792969 15.171875 15.171875v46.316406zm0 0" fill="#3d4883"/><path d="m69.609375 189.371094 39.417969-97.378906c2.320312-5.730469 7.882812-9.480469 14.0625-9.480469 6.183594 0 11.746094 3.75 14.066406 9.480469l39.417969 97.378906zm0 0" fill="#4ab8f7"/><path d="m15.648438 322.660156h87.53125c8.378906 0 15.171874-6.796875 15.171874-15.175781s-6.792968-15.171875-15.171874-15.171875h-75.246094zm0 0" fill="#4ab8f7"/><path d="m173.515625 292.3125c-8.382813 0-15.175781 6.792969-15.175781 15.171875s6.792968 15.175781 15.175781 15.175781h57.019531l-12.285156-30.347656zm0 0" fill="#4a98f7"/><path d="m143.011719 259.363281h61.898437l-12.285156-30.347656h-49.613281c-8.378907 0-15.171875 6.796875-15.171875 15.175781s6.792968 15.171875 15.171875 15.171875zm0 0" fill="#4a98f7"/><path d="m41.273438 259.363281h46.734374c8.378907 0 15.171876-6.792969 15.171876-15.171875s-6.792969-15.175781-15.171876-15.175781h-34.449218zm0 0" fill="#4ab8f7"/><path d="m123.089844 82.511719c-.035156 0-.074219.003906-.113282.003906v106.855469h53.597657l-39.417969-97.378906c-2.320312-5.730469-7.882812-9.480469-14.066406-9.480469zm0 0" fill="#4a98f7"/><path d="m123.089844 450.511719c-.039063 0-.074219.003906-.113282.007812v61.480469h15.289063v-46.316406c0-8.378906-6.792969-15.171875-15.175781-15.171875zm0 0" fill="#16204c"/></svg>